<svg width="330" height="54" viewBox="0 0 330 54" fill="none" xmlns="http://www.w3.org/2000/svg">
<rect x="0.5" y="0.5" width="329" height="53" rx="9.5" stroke="#B8926A"/>
<path d="M114.36 33V21.64H115.8V31.72H122.136V33H114.36ZM131.416 31.72V33H123.704V21.64H131.272V22.92H125.144V26.6H130.472V27.8H125.144V31.72H131.416ZM136.847 21.64H138.063L142.703 33H141.167L139.823 29.672H135.055L133.727 33H132.191L136.847 21.64ZM139.503 28.552L137.455 23.304L135.343 28.552H139.503ZM144.219 33V21.64H149.083C149.585 21.64 150.043 21.7467 150.459 21.96C150.875 22.1627 151.238 22.44 151.547 22.792C151.857 23.1333 152.097 23.5227 152.267 23.96C152.438 24.3867 152.523 24.824 152.523 25.272C152.523 25.7947 152.422 26.2907 152.219 26.76C152.027 27.2293 151.75 27.6293 151.387 27.96C151.035 28.2907 150.619 28.52 150.139 28.648L152.891 33H151.259L148.667 28.92H145.659V33H144.219ZM145.659 27.64H149.099C149.494 27.64 149.835 27.5333 150.123 27.32C150.422 27.096 150.651 26.8027 150.811 26.44C150.982 26.0773 151.067 25.688 151.067 25.272C151.067 24.8453 150.971 24.456 150.779 24.104C150.587 23.7413 150.337 23.4533 150.027 23.24C149.718 23.0267 149.377 22.92 149.003 22.92H145.659V27.64ZM156.175 24.296V33H154.735V21.64H155.951L162.895 30.52V21.656H164.335V33H163.023L156.175 24.296ZM180.918 33V24.328L177.174 31H176.294L172.534 24.328V33H171.094V21.64H172.614L176.726 29.016L180.854 21.64H182.358V33H180.918ZM189.687 33.08C188.887 33.08 188.161 32.92 187.511 32.6C186.86 32.28 186.295 31.848 185.815 31.304C185.345 30.7493 184.983 30.1307 184.727 29.448C184.471 28.7547 184.343 28.0453 184.343 27.32C184.343 26.5627 184.476 25.8427 184.743 25.16C185.02 24.4667 185.399 23.8533 185.879 23.32C186.369 22.776 186.94 22.3493 187.591 22.04C188.241 21.72 188.951 21.56 189.719 21.56C190.519 21.56 191.244 21.7253 191.895 22.056C192.545 22.3867 193.105 22.8293 193.575 23.384C194.044 23.9387 194.407 24.5573 194.663 25.24C194.919 25.9227 195.047 26.6213 195.047 27.336C195.047 28.0933 194.913 28.8187 194.647 29.512C194.38 30.1947 194.001 30.808 193.511 31.352C193.031 31.8853 192.465 32.3067 191.815 32.616C191.164 32.9253 190.455 33.08 189.687 33.08ZM185.799 27.32C185.799 27.896 185.889 28.456 186.071 29C186.263 29.5333 186.529 30.008 186.871 30.424C187.212 30.84 187.623 31.1707 188.103 31.416C188.583 31.6613 189.116 31.784 189.703 31.784C190.311 31.784 190.855 31.656 191.335 31.4C191.815 31.144 192.22 30.8027 192.551 30.376C192.892 29.9493 193.148 29.4693 193.319 28.936C193.5 28.4027 193.591 27.864 193.591 27.32C193.591 26.744 193.495 26.1893 193.303 25.656C193.121 25.1227 192.855 24.648 192.503 24.232C192.161 23.8053 191.751 23.4747 191.271 23.24C190.801 22.9947 190.279 22.872 189.703 22.872C189.095 22.872 188.551 23 188.071 23.256C187.591 23.5013 187.18 23.8373 186.839 24.264C186.508 24.6907 186.252 25.1707 186.071 25.704C185.889 26.2267 185.799 26.7653 185.799 27.32ZM197.048 33V21.64H201.912C202.413 21.64 202.872 21.7467 203.288 21.96C203.704 22.1627 204.066 22.44 204.376 22.792C204.685 23.1333 204.925 23.5227 205.095 23.96C205.266 24.3867 205.352 24.824 205.352 25.272C205.352 25.7947 205.25 26.2907 205.048 26.76C204.856 27.2293 204.578 27.6293 204.216 27.96C203.864 28.2907 203.448 28.52 202.968 28.648L205.72 33H204.088L201.496 28.92H198.488V33H197.048ZM198.488 27.64H201.928C202.322 27.64 202.664 27.5333 202.952 27.32C203.25 27.096 203.48 26.8027 203.64 26.44C203.81 26.0773 203.896 25.688 203.896 25.272C203.896 24.8453 203.8 24.456 203.608 24.104C203.416 23.7413 203.165 23.4533 202.856 23.24C202.546 23.0267 202.205 22.92 201.832 22.92H198.488V27.64ZM215.275 31.72V33H207.563V21.64H215.131V22.92H209.003V26.6H214.331V27.8H209.003V31.72H215.275Z" fill="#B8926A"/>
</svg>
