<svg width="63" height="15" viewBox="0 0 63 15" fill="none" xmlns="http://www.w3.org/2000/svg">
<path d="M8.032 3.024C7.904 2.87467 7.73333 2.73067 7.52 2.592C7.30667 2.45333 7.06667 2.33067 6.8 2.224C6.53333 2.10667 6.24 2.016 5.92 1.952C5.61067 1.87733 5.28533 1.84 4.944 1.84C4.06933 1.84 3.424 2.00533 3.008 2.336C2.592 2.66667 2.384 3.12 2.384 3.696C2.384 4.10133 2.49067 4.42133 2.704 4.656C2.91733 4.89067 3.24267 5.08267 3.68 5.232C4.128 5.38133 4.69333 5.536 5.376 5.696C6.16533 5.86667 6.848 6.07467 7.424 6.32C8 6.56533 8.44267 6.896 8.752 7.312C9.06133 7.71733 9.216 8.26133 9.216 8.944C9.216 9.488 9.10933 9.96267 8.896 10.368C8.69333 10.7627 8.40533 11.0933 8.032 11.36C7.65867 11.616 7.22133 11.808 6.72 11.936C6.21867 12.0533 5.67467 12.112 5.088 12.112C4.512 12.112 3.94667 12.0533 3.392 11.936C2.848 11.808 2.33067 11.6267 1.84 11.392C1.34933 11.1573 0.890667 10.864 0.464 10.512L1.152 9.296C1.32267 9.47733 1.54133 9.65867 1.808 9.84C2.08533 10.0107 2.39467 10.1707 2.736 10.32C3.088 10.4693 3.46667 10.592 3.872 10.688C4.27733 10.7733 4.69333 10.816 5.12 10.816C5.93067 10.816 6.56 10.672 7.008 10.384C7.456 10.0853 7.68 9.65333 7.68 9.088C7.68 8.66133 7.552 8.32 7.296 8.064C7.05067 7.808 6.68267 7.59467 6.192 7.424C5.70133 7.25333 5.104 7.08267 4.4 6.912C3.632 6.72 2.98667 6.512 2.464 6.288C1.94133 6.05333 1.54667 5.74933 1.28 5.376C1.024 5.00267 0.896 4.51733 0.896 3.92C0.896 3.19467 1.072 2.58133 1.424 2.08C1.776 1.57867 2.26133 1.2 2.88 0.943999C3.49867 0.687999 4.19733 0.559999 4.976 0.559999C5.488 0.559999 5.96267 0.613333 6.4 0.719999C6.848 0.826666 7.264 0.975999 7.648 1.168C8.032 1.36 8.384 1.58933 8.704 1.856L8.032 3.024ZM18.822 10.72V12H11.11V0.639999H18.678V1.92H12.55V5.6H17.878V6.8H12.55V10.72H18.822ZM28.5095 10.72V12H20.7975V0.639999H28.3655V1.92H22.2375V5.6H27.5655V6.8H22.2375V10.72H28.5095ZM37.4879 0.639999H38.7039L43.3439 12H41.8079L40.4639 8.672H35.6959L34.3679 12H32.8319L37.4879 0.639999ZM40.1439 7.552L38.0959 2.304L35.9839 7.552H40.1439ZM44.86 12V0.639999H46.3V10.72H52.636V12H44.86ZM54.2038 12V0.639999H55.6438V10.72H61.9798V12H54.2038Z" fill="#B8926A"/>
<path d="M0 14H62.1878V14.8H0V14Z" fill="#B8926A"/>
</svg>
